<svg xmlns="http://www.w3.org/2000/svg" viewBox="0 0 134.65 46"><defs><style>.cls-1{fill:#fff;}</style></defs><title>right_arrow</title><g id="Layer_2" data-name="Layer 2"><g id="Layer_1-2" data-name="Layer 1"><path class="cls-1" d="M134.52,27.92c-.47-2.36-.85-4.23-25.92-8.58a3.5,3.5,0,1,0-1.2,6.9c2.9.5,6,1.08,8.9,1.68C87,33.09,68.61,32.05,57.13,29.22c.6-.43,1.17-.89,1.71-1.35,4.55-3.94,6.68-8.89,6-13.94C63.79,6.09,55.57-1.19,43.6.16A14.47,14.47,0,0,0,31.49,9c-2.07,5.1-.94,10.83,3.08,15.72a25,25,0,0,0,4.54,4.25c-1,.2-2,.38-3,.53A90.78,90.78,0,0,1,4.2,28.67a3.5,3.5,0,1,0-1.39,6.86,97.55,97.55,0,0,0,34.4.85,62,62,0,0,0,10.92-2.62A67,67,0,0,0,62.5,37.39a116.19,116.19,0,0,0,17.12,1.16A219,219,0,0,0,116.52,35c-2.44,1.51-5,3.06-7.46,4.48a3.5,3.5,0,1,0,3.52,6.05C135.39,32.25,135,30.34,134.52,27.92ZM48.21,26.14A23.22,23.22,0,0,1,40,20.24c-2.34-2.85-3.07-6-2-8.66a7.56,7.56,0,0,1,6.41-4.46A15,15,0,0,1,46.16,7c5.43,0,11.06,2.75,11.74,7.84C58.54,19.67,54.32,23.51,48.21,26.14Z"/></g></g></svg>