<svg xmlns="http://www.w3.org/2000/svg" viewBox="0 0 134.65 46"><defs><style>.cls-1{fill:#fff;}</style></defs><title>left_arrow</title><g id="Layer_2" data-name="Layer 2"><g id="Layer_1-2" data-name="Layer 1"><path class="cls-1" d="M22.08,45.52a3.5,3.5,0,0,0,3.52-6.05c-2.45-1.42-5-3-7.47-4.48A219.13,219.13,0,0,0,55,38.55a116.33,116.33,0,0,0,17.13-1.16,67.12,67.12,0,0,0,14.37-3.63,61.83,61.83,0,0,0,10.92,2.62,97.56,97.56,0,0,0,34.4-.85,3.5,3.5,0,0,0-1.39-6.86,90.83,90.83,0,0,1-31.95.79c-1-.15-2-.33-3-.53a25,25,0,0,0,4.54-4.25c4-4.89,5.15-10.62,3.09-15.72A14.49,14.49,0,0,0,91.06.16c-12-1.35-20.19,5.93-21.24,13.77-.68,5.05,1.45,10,6,13.94.54.46,1.11.92,1.71,1.35C66,32.05,47.61,33.09,18.35,27.92c2.91-.6,6-1.18,8.9-1.68a3.5,3.5,0,1,0-1.2-6.9C1,23.69.61,25.56.13,27.92S-.73,32.25,22.08,45.52ZM76.75,14.86C77.44,9.77,83.06,7,88.49,7a14.76,14.76,0,0,1,1.77.1,7.56,7.56,0,0,1,6.42,4.46c1.07,2.65.34,5.81-2,8.66a23.15,23.15,0,0,1-8.22,5.9C80.34,23.51,76.11,19.67,76.75,14.86Z"/></g></g></svg>